<?xml version="1.0" encoding="UTF-8"?>
<!DOCTYPE svg PUBLIC "-//W3C//DTD SVG 1.1//EN" "http://www.w3.org/Graphics/SVG/1.1/DTD/svg11.dtd">
<!-- Creator: CorelDRAW -->
<svg xmlns="http://www.w3.org/2000/svg" xml:space="preserve" width="300mm" height="55mm" version="1.1" style="shape-rendering:geometricPrecision; text-rendering:geometricPrecision; image-rendering:optimizeQuality; fill-rule:evenodd; clip-rule:evenodd"
viewBox="0 0 30000 5500"
 xmlns:xlink="http://www.w3.org/1999/xlink"
 xmlns:xodm="http://www.corel.com/coreldraw/odm/2003">
 <defs>
  <style type="text/css">
   <![CDATA[
    .fil1 {fill:white}
    .fil0 {fill:white;fill-rule:nonzero}
   ]]>
  </style>
 </defs>
 <g id="Camada_x0020_1">
  <metadata id="CorelCorpID_0Corel-Layer"/>
  <g id="_2298912041216">
   <path class="fil0" d="M26875.51 218.53c-122.11,-67.77 -275.38,-24.67 -344.42,95.99l-2601.98 4627.63c-67.77,122.12 -24.75,276.77 97.37,344.53 33.15,18.85 69.62,29.65 105.3,32.14 94.66,6.58 188.94,-40.63 239.13,-128.13l2600.6 -4627.73c69.14,-122.03 26.03,-275.29 -96,-344.43l0 0z"/>
   <path class="fil1" d="M2263.63 4649.87c57.68,51.63 121.32,74.82 199.22,74.82 72.66,0 132.12,-19.64 184.01,-71.53 55.77,-55.78 83.5,-116.94 83.5,-195.97 0,-73.13 -23.1,-128.39 -77.07,-177.86l-3.6 -3.31 -1509.86 -1523.09 1509.86 -1523.08 3.6 -3.31c53.97,-49.47 77.07,-104.73 77.07,-177.86 0,-73.1 -23.1,-128.38 -77.06,-177.83l-6.56 -6.03 -6.04 -6.57c-49.46,-53.97 -104.73,-77.07 -177.85,-77.07 -79.03,0 -140.19,27.73 -195.96,83.5l-1686.32 1686.31c-57.29,57.3 -83.5,120.93 -83.5,201.94 0,81.32 26.78,144.83 84.02,202.46l1682.54 1694.48z"/>
   <g>
    <polygon class="fil0" points="3635.65,2191.51 3635.65,835.63 3295.7,835.63 3295.7,2528.6 4316.28,2528.6 4316.28,2191.51 "/>
    <polygon class="fil0" points="5528.72,1170.92 5528.72,835.99 4508.14,835.99 4508.14,2528.6 5528.72,2528.6 5528.72,2191.51 4848.09,2191.51 4848.09,1840.08 5432.26,1840.08 5432.26,1500.84 4848.09,1500.84 4848.09,1170.92 "/>
    <path class="fil0" d="M6586.25 2560.87c485.55,0 882.16,-394.1 882.16,-876.06 0,-486.27 -396.61,-883.25 -881.09,-883.25 -484.47,0 -878.93,396.98 -878.93,883.25 0,481.96 394.46,876.06 877.86,876.06zm0 -343.54c-295.13,0 -535.75,-240.62 -535.75,-534.68 0,-295.84 240.62,-537.55 535.75,-537.55 296.2,0 537.9,241.71 537.9,537.55 0,294.06 -241.7,534.68 -537.9,534.68z"/>
    <polygon class="fil0" points="8708.47,831.33 8708.47,1779.83 7705.1,804.08 7688.24,804.08 7688.24,2531.11 8028.19,2531.11 8028.19,1582.6 9034.08,2561.23 9049.86,2561.23 9049.86,831.33 "/>
    <path class="fil0" d="M10479.26 2528.96l368.64 0 -809.72 -1736.36 -10.41 0 -808.65 1736.36 367.57 0 108.3 -237.04 677.04 0 107.23 237.04zm-651.95 -526.79l206.56 -452.92 205.84 452.92 -412.4 0z"/>
    <path class="fil0" d="M12314.94 2528.96l-480.52 -673.1c181.45,-64.19 312.7,-254.26 312.7,-471.57 0,-304.8 -259.27,-548.3 -575.92,-548.3l-551.89 0 1.08 1692.97 339.24 0 0 -800.41 539.69 800.41 415.62 0zm-955.31 -1355.88l218.39 0c114.39,0 218.39,92.51 218.39,213.37 0,120.49 -102.92,214.08 -218.39,213.01l-218.39 -1.07 0 -425.31z"/>
    <path class="fil0" d="M12968.69 835.27l-492.37 1.08 0 1692.61 492.37 0c546.86,0 881.08,-319.52 881.08,-844.51 0,-528.59 -334.22,-850.25 -881.08,-849.18zm2.14 1354.45l-155.27 0 0 -1017 152.05 0c334.93,0.36 538.62,193.64 538.62,510.65 0,315.22 -202.61,506.35 -535.4,506.35l0 0z"/>
    <path class="fil0" d="M14877.18 2560.87c485.55,0 882.16,-394.1 882.16,-876.06 0,-486.27 -396.61,-883.25 -881.09,-883.25 -484.48,0 -878.93,396.98 -878.93,883.25 0,481.96 394.45,876.06 877.86,876.06zm0 -343.54c-295.13,0 -535.76,-240.62 -535.76,-534.68 0,-295.84 240.63,-537.55 535.76,-537.55 296.2,0 537.9,241.71 537.9,537.55 0,294.06 -241.7,534.68 -537.9,534.68z"/>
    <path class="fil0" d="M6208.65 4641.9c118.7,0 217.31,-97.54 217.31,-216.6 0,-117.61 -99.69,-217.31 -217.31,-217.31 -118.7,0 -217.31,98.61 -217.31,217.31 0,119.78 97.54,216.6 217.31,216.6z"/>
    <path class="fil0" d="M7191.22 4622.89c363.63,0 615.37,-196.15 615.37,-505.27 0,-261.06 -176.43,-404.51 -457.23,-537.19 -195.08,-91.44 -323.81,-126.23 -323.81,-227.35 0,-87.5 95.03,-161.01 222.69,-161.01 95.03,0 193.29,40.88 243.5,142l250.66 -175.71c-76.39,-204.41 -267.17,-299.79 -499.54,-299.79 -311.99,0 -559.42,192.92 -559.42,485.91 0,270.74 208.71,375.09 399.13,469.76 178.22,88.58 381.91,186.47 381.91,310.91 0,90.37 -107.59,155.63 -267.87,155.63 -147.04,0 -254.98,-54.5 -329.57,-174.63l-271.82 191.49c113.68,209.78 318.09,325.25 596,325.25z"/>
    <path class="fil0" d="M9062.77 4588.47l368.64 0 -809.72 -1736.36 -10.4 0 -808.65 1736.36 367.56 0 108.3 -237.04 677.05 0 107.22 237.04zm-651.94 -526.79l206.55 -452.92 205.84 452.92 -412.39 0z"/>
    <polygon class="fil0" points="10621.26,2890.84 10621.26,3839.34 9617.89,2863.59 9601.04,2863.59 9601.04,4590.62 9940.99,4590.62 9940.99,3642.11 10946.87,4620.74 10962.65,4620.74 10962.65,2890.84 "/>
    <polygon class="fil0" points="12328.57,2895.5 11154.15,2895.5 11154.15,3232.59 11571.2,3232.59 11571.2,4588.47 11912.6,4588.47 11912.6,3232.59 12328.57,3232.59 "/>
    <path class="fil0" d="M13242.3 4620.38c485.55,0 882.16,-394.1 882.16,-876.06 0,-486.27 -396.61,-883.25 -881.09,-883.25 -484.48,0 -878.93,396.98 -878.93,883.25 0,481.96 394.45,876.06 877.86,876.06zm0 -343.54c-295.13,0 -535.76,-240.62 -535.76,-534.68 0,-295.84 240.63,-537.55 535.76,-537.55 296.2,0 537.9,241.71 537.9,537.55 0,294.06 -241.7,534.68 -537.9,534.68z"/>
    <path class="fil0" d="M14852.07 4622.89c363.62,0 615.37,-196.15 615.37,-505.27 0,-261.06 -176.44,-404.51 -457.23,-537.19 -195.08,-91.44 -323.81,-126.23 -323.81,-227.35 0,-87.5 95.03,-161.01 222.69,-161.01 95.03,0 193.29,40.88 243.49,142l250.67 -175.71c-76.39,-204.41 -267.17,-299.79 -499.54,-299.79 -311.99,0 -559.42,192.92 -559.42,485.91 0,270.74 208.71,375.09 399.13,469.76 178.22,88.58 381.91,186.47 381.91,310.91 0,90.37 -107.59,155.63 -267.88,155.63 -147.03,0 -254.97,-54.5 -329.56,-174.63l-271.82 191.49c113.68,209.78 318.08,325.25 596,325.25z"/>
    <path class="fil0" d="M15889.15 4713.26l306.61 0c-153.13,-251.02 -273.98,-676.33 -273.98,-973.6 0,-296.22 119.78,-719.36 271.82,-971.47l-304.45 0c-228.07,321.31 -290.11,670.24 -290.11,971.47 0,301.58 62.04,654.09 290.11,973.6z"/>
    <path class="fil0" d="M16649.03 3549.24c-194.37,0 -305.89,-205.85 -305.89,-410.6 0,-183.62 90.37,-282.23 213.37,-282.23 121.92,0 210.14,96.83 210.14,209.07 0,120.49 -105.07,178.23 -172.13,178.23 -11.83,21.15 -14.7,32.62 -14.7,71.36 0,121.56 105.79,178.23 180.38,178.23 0,15.77 -38.73,55.94 -111.17,55.94z"/>
    <path class="fil0" d="M17219.57 3549.24c-194.37,0 -305.89,-205.85 -305.89,-410.6 0,-183.62 90.36,-282.23 213.36,-282.23 121.93,0 210.15,96.83 210.15,209.07 0,120.49 -105.08,178.23 -172.13,178.23 -11.84,21.15 -14.7,32.62 -14.7,71.36 0,121.56 105.79,178.23 180.38,178.23 0,15.77 -38.74,55.94 -111.17,55.94z"/>
    <path class="fil0" d="M18050.1 2894.78l-492.37 1.08 0 1692.61 492.37 0c546.86,0 881.08,-319.52 881.08,-844.51 0,-528.59 -334.22,-850.25 -881.08,-849.18zm2.14 1354.45l-155.27 0 0 -1017 152.05 0c334.93,0.36 538.62,193.64 538.62,510.65 0,315.22 -202.61,506.35 -535.4,506.35l0 0z"/>
    <polygon class="fil0" points="20172.31,3230.43 20172.31,2895.5 19151.73,2895.5 19151.73,4588.11 20172.31,4588.11 20172.31,4251.02 19491.68,4251.02 19491.68,3899.59 20075.85,3899.59 20075.85,3560.35 19491.68,3560.35 19491.68,3230.43 "/>
    <polygon class="fil0" points="21527.84,2895.14 21092.85,3878.79 20658.94,2895.14 20298.55,2895.14 21087.47,4630.78 21100.02,4630.78 21892.18,2895.14 "/>
    <path class="fil0" d="M22105.55 3549.24c194.37,0 305.89,-205.85 305.89,-410.6 0,-183.62 -90.37,-282.23 -213.37,-282.23 -121.92,0 -210.14,96.83 -210.14,209.07 0,120.49 105.07,178.23 172.13,178.23 11.83,21.15 14.7,32.62 14.7,71.36 0,121.56 -105.79,178.23 -180.38,178.23 0,15.77 38.73,55.94 111.17,55.94z"/>
    <path class="fil0" d="M22676.08 3549.24c194.37,0 305.89,-205.85 305.89,-410.6 0,-183.62 -90.36,-282.23 -213.36,-282.23 -121.92,0 -210.14,96.83 -210.14,209.07 0,120.49 105.07,178.23 172.13,178.23 11.83,21.15 14.7,32.62 14.7,71.36 0,121.56 -105.79,178.23 -180.38,178.23 0,15.77 38.73,55.94 111.16,55.94z"/>
    <path class="fil0" d="M23436.68 4713.26c228.08,-319.51 290.12,-672.02 290.12,-973.6 0,-301.23 -62.04,-650.16 -290.12,-971.47l-304.44 0c152.04,252.11 271.81,675.25 271.81,971.47 0,297.27 -120.85,722.58 -273.97,973.6l306.6 0z"/>
   </g>
   <path class="fil1" d="M27730.51 4649.86c-57.68,51.63 -121.32,74.82 -199.22,74.82 -72.66,0 -132.12,-19.64 -184.01,-71.53 -55.77,-55.78 -83.5,-116.94 -83.5,-195.97 0,-73.13 23.1,-128.39 77.07,-177.86l3.6 -3.31 1509.86 -1523.09 -1509.86 -1523.08 -3.6 -3.31c-53.97,-49.47 -77.07,-104.73 -77.07,-177.86 0,-73.1 23.1,-128.38 77.06,-177.83l6.56 -6.03 6.04 -6.57c49.46,-53.97 104.73,-77.07 177.85,-77.07 79.03,0 140.19,27.73 195.96,83.5l1686.32 1686.31c57.29,57.3 83.5,120.93 83.5,201.94 0,81.32 -26.78,144.83 -84.02,202.46l-1682.54 1694.48z"/>
  </g>
 </g>
</svg>
